<svg width="960" height="540" viewBox="0 0 960 540" xmlns="http://www.w3.org/2000/svg">
  <rect width="960" height="540" rx="48" fill="#EFF7FF"/>
  <rect x="128" y="174" width="402" height="176" rx="28" fill="#77B46A"/>
  <rect x="530" y="216" width="188" height="134" rx="24" fill="#A5D8FF"/>
  <path d="M718 244H798L858 314V350H718V244Z" fill="#6CB1F2"/>
  <rect x="572" y="246" width="92" height="54" rx="12" fill="#DFF0FF"/>
  <circle cx="256" cy="384" r="42" fill="#274A2B"/>
  <circle cx="620" cy="384" r="42" fill="#274A2B"/>
  <circle cx="804" cy="384" r="42" fill="#274A2B"/>
  <circle cx="256" cy="384" r="18" fill="#D7E8D8"/>
  <circle cx="620" cy="384" r="18" fill="#D7E8D8"/>
  <circle cx="804" cy="384" r="18" fill="#D7E8D8"/>
  <path d="M238 242C238 210 264 184 296 184C328 184 354 210 354 242" stroke="#EAF6E8" stroke-width="16" stroke-linecap="round"/>
  <path d="M278 206L314 206" stroke="#EAF6E8" stroke-width="16" stroke-linecap="round"/>
  <text x="128" y="118" fill="#3B6DAB" font-size="42" font-family="Arial, sans-serif">Cold Chain Delivery</text>
</svg>
