<svg width="960" height="540" viewBox="0 0 960 540" xmlns="http://www.w3.org/2000/svg">
  <rect width="960" height="540" rx="48" fill="#F4F9EE"/>
  <path d="M0 356C98 304 208 290 322 310C430 330 526 382 632 394C744 408 850 374 960 318V540H0V356Z" fill="#CFE6B8"/>
  <path d="M0 412C116 362 232 350 348 368C472 388 584 446 706 450C790 454 874 432 960 388V540H0V412Z" fill="#9CC86E"/>
  <circle cx="204" cy="164" r="46" fill="#FFC95C"/>
  <path d="M622 208L704 154L786 208V292H622V208Z" fill="#F2E4C7"/>
  <path d="M686 154L736 118L786 154V208H686V154Z" fill="#E98D57"/>
  <rect x="664" y="236" width="40" height="56" fill="#D1784A"/>
  <circle cx="308" cy="266" r="48" fill="#71B75A"/>
  <circle cx="256" cy="288" r="40" fill="#5BA047"/>
  <circle cx="362" cy="292" r="40" fill="#5BA047"/>
  <rect x="302" y="290" width="14" height="44" rx="7" fill="#6D8E45"/>
  <text x="72" y="102" fill="#4C7F37" font-size="42" font-family="Arial, sans-serif">Fresh From Farm</text>
</svg>
